{
	"asset":{
		"version":"2.0",
		"generator":"Created using the official Cinema 4D glTF Exporter 1.000x290161"
	},
	"scenes":[{
		"nodes":[0,
		1,
		2]
	}],
	"nodes":[{
		"name":"Cube",
		"translation":[0.12171491235494614,
		9.709531784057618,
		0.0],
		"rotation":[0.0,
		0.0,
		0.006267435848712921,
		-0.9999803304672241],
		"scale":[1.0,
		1.0,
		1.0],
		"mesh":0
	},
	{
		"name":"Cone",
		"translation":[-0.3964599072933197,
		28.32486915588379,
		-1.448573112487793],
		"rotation":[0.26522591710090639,
		0.0,
		0.0,
		-0.9641863107681274],
		"scale":[1.0,
		1.0,
		1.0],
		"mesh":1
	},
	{
		"name":"Sphere",
		"translation":[-0.16074807941913606,
		40.126564025878909,
		0.24862636625766755],
		"rotation":[0.0,
		0.0,
		0.0,
		-1.0],
		"scale":[1.0,
		1.0,
		1.0],
		"mesh":2
	}],
	"meshes":[{
		"primitives":[{
			"attributes":{
				"POSITION":1,
				"NORMAL":2,
				"TEXCOORD_0":3
			},
			"indices":0,
			"material":0
		}]
	},
	{
		"primitives":[{
			"attributes":{
				"POSITION":11,
				"NORMAL":12,
				"TEXCOORD_0":13
			},
			"indices":10,
			"material":1
		}]
	},
	{
		"primitives":[{
			"attributes":{
				"POSITION":21,
				"NORMAL":22,
				"TEXCOORD_0":23
			},
			"indices":20,
			"material":2
		}]
	}],
	"accessors":[{
		"bufferView":0,
		"type":"SCALAR",
		"componentType":5123,
		"count":36,
		"byteOffset":0,
		"min":[0],
		"max":[23]
	},
	{
		"bufferView":1,
		"type":"VEC3",
		"componentType":5126,
		"count":24,
		"byteOffset":0,
		"min":[-5.638169765472412,
		-5.638169765472412,
		-5.638169765472412],
		"max":[5.638169765472412,
		5.638169765472412,
		5.638169765472412]
	},
	{
		"bufferView":1,
		"type":"VEC3",
		"componentType":5126,
		"count":24,
		"byteOffset":12,
		"min":[-1.0,
		-1.0,
		-1.0],
		"max":[1.0,
		1.0,
		1.0]
	},
	{
		"bufferView":1,
		"type":"VEC2",
		"componentType":5126,
		"count":24,
		"byteOffset":24,
		"min":[0.0,
		0.0],
		"max":[1.0,
		1.0]
	},
	{
		"bufferView":2,
		"type":"SCALAR",
		"componentType":5126,
		"count":4,
		"byteOffset":0,
		"min":[0.0],
		"max":[3.0]
	},
	{
		"bufferView":2,
		"type":"VEC3",
		"componentType":5126,
		"count":4,
		"byteOffset":16,
		"min":[0.12171491235494614,
		9.709531784057618,
		0.0],
		"max":[0.15698891878128053,
		12.523436546325684,
		0.0]
	},
	{
		"bufferView":3,
		"type":"SCALAR",
		"componentType":5126,
		"count":4,
		"byteOffset":0,
		"min":[0.0],
		"max":[3.0]
	},
	{
		"bufferView":3,
		"type":"VEC4",
		"componentType":5126,
		"count":4,
		"byteOffset":16,
		"min":[0.0,
		0.0,
		0.006267435848712921,
		-0.9999803304672241],
		"max":[0.0,
		0.0,
		0.006267435848712921,
		-0.9999803304672241]
	},
	{
		"bufferView":4,
		"type":"SCALAR",
		"componentType":5126,
		"count":4,
		"byteOffset":0,
		"min":[0.0],
		"max":[3.0]
	},
	{
		"bufferView":4,
		"type":"VEC3",
		"componentType":5126,
		"count":4,
		"byteOffset":16,
		"min":[1.0,
		1.0,
		1.0],
		"max":[1.0,
		1.0,
		1.0]
	},
	{
		"bufferView":5,
		"type":"SCALAR",
		"componentType":5123,
		"count":4860,
		"byteOffset":0,
		"min":[0],
		"max":[958]
	},
	{
		"bufferView":6,
		"type":"VEC3",
		"componentType":5126,
		"count":959,
		"byteOffset":0,
		"min":[-3.458226203918457,
		-5.605688095092773,
		-3.458226203918457],
		"max":[3.458226203918457,
		5.605688095092773,
		3.458226203918457]
	},
	{
		"bufferView":6,
		"type":"VEC3",
		"componentType":5126,
		"count":959,
		"byteOffset":12,
		"min":[-0.998593270778656,
		-1.0,
		-0.998593270778656],
		"max":[0.9985933303833008,
		0.44721370935440066,
		0.998593270778656]
	},
	{
		"bufferView":6,
		"type":"VEC2",
		"componentType":5126,
		"count":959,
		"byteOffset":24,
		"min":[0.0,
		0.0],
		"max":[1.0,
		1.0]
	},
	{
		"bufferView":7,
		"type":"SCALAR",
		"componentType":5126,
		"count":4,
		"byteOffset":0,
		"min":[0.0],
		"max":[3.0]
	},
	{
		"bufferView":7,
		"type":"VEC3",
		"componentType":5126,
		"count":4,
		"byteOffset":16,
		"min":[-0.3964599072933197,
		28.32486915588379,
		-1.448573112487793],
		"max":[-0.3964599072933197,
		28.32486915588379,
		-1.448573112487793]
	},
	{
		"bufferView":8,
		"type":"SCALAR",
		"componentType":5126,
		"count":4,
		"byteOffset":0,
		"min":[0.0],
		"max":[3.0]
	},
	{
		"bufferView":8,
		"type":"VEC4",
		"componentType":5126,
		"count":4,
		"byteOffset":16,
		"min":[0.08536019921302796,
		0.0,
		0.0,
		-0.9963501691818237],
		"max":[0.26522591710090639,
		0.0,
		0.0,
		-0.9641863107681274]
	},
	{
		"bufferView":9,
		"type":"SCALAR",
		"componentType":5126,
		"count":4,
		"byteOffset":0,
		"min":[0.0],
		"max":[3.0]
	},
	{
		"bufferView":9,
		"type":"VEC3",
		"componentType":5126,
		"count":4,
		"byteOffset":16,
		"min":[1.0,
		1.0,
		1.0],
		"max":[1.0,
		1.0,
		1.0]
	},
	{
		"bufferView":10,
		"type":"SCALAR",
		"componentType":5123,
		"count":1584,
		"byteOffset":0,
		"min":[0],
		"max":[322]
	},
	{
		"bufferView":11,
		"type":"VEC3",
		"componentType":5126,
		"count":323,
		"byteOffset":0,
		"min":[-2.6522676944732668,
		-2.6522676944732668,
		-2.6522676944732668],
		"max":[2.6522676944732668,
		2.6522676944732668,
		2.6522676944732668]
	},
	{
		"bufferView":11,
		"type":"VEC3",
		"componentType":5126,
		"count":323,
		"byteOffset":12,
		"min":[-1.0,
		-1.0,
		-1.0],
		"max":[1.0,
		1.0,
		1.0]
	},
	{
		"bufferView":11,
		"type":"VEC2",
		"componentType":5126,
		"count":323,
		"byteOffset":24,
		"min":[0.0,
		0.0],
		"max":[1.0,
		1.0]
	},
	{
		"bufferView":12,
		"type":"SCALAR",
		"componentType":5126,
		"count":4,
		"byteOffset":0,
		"min":[0.0],
		"max":[3.0]
	},
	{
		"bufferView":12,
		"type":"VEC3",
		"componentType":5126,
		"count":4,
		"byteOffset":16,
		"min":[-0.16074807941913606,
		38.83887481689453,
		0.24862636625766755],
		"max":[-0.16074807941913606,
		40.126564025878909,
		0.24862636625766755]
	},
	{
		"bufferView":13,
		"type":"SCALAR",
		"componentType":5126,
		"count":4,
		"byteOffset":0,
		"min":[0.0],
		"max":[3.0]
	},
	{
		"bufferView":13,
		"type":"VEC4",
		"componentType":5126,
		"count":4,
		"byteOffset":16,
		"min":[0.0,
		0.0,
		0.0,
		-1.0],
		"max":[0.0,
		0.0,
		0.0,
		-1.0]
	},
	{
		"bufferView":14,
		"type":"SCALAR",
		"componentType":5126,
		"count":4,
		"byteOffset":0,
		"min":[0.0],
		"max":[3.0]
	},
	{
		"bufferView":14,
		"type":"VEC3",
		"componentType":5126,
		"count":4,
		"byteOffset":16,
		"min":[1.0,
		1.0,
		1.0],
		"max":[1.0,
		1.0,
		1.0]
	}],
	"bufferViews":[{
		"buffer":0,
		"byteOffset":0,
		"byteLength":72,
		"target":34963
	},
	{
		"buffer":0,
		"byteOffset":72,
		"byteLength":768,
		"target":34962,
		"byteStride":32
	},
	{
		"buffer":1,
		"byteOffset":0,
		"byteLength":64
	},
	{
		"buffer":1,
		"byteOffset":64,
		"byteLength":80
	},
	{
		"buffer":1,
		"byteOffset":144,
		"byteLength":64
	},
	{
		"buffer":2,
		"byteOffset":0,
		"byteLength":9720,
		"target":34963
	},
	{
		"buffer":2,
		"byteOffset":9720,
		"byteLength":30688,
		"target":34962,
		"byteStride":32
	},
	{
		"buffer":3,
		"byteOffset":0,
		"byteLength":64
	},
	{
		"buffer":3,
		"byteOffset":64,
		"byteLength":80
	},
	{
		"buffer":3,
		"byteOffset":144,
		"byteLength":64
	},
	{
		"buffer":4,
		"byteOffset":0,
		"byteLength":3168,
		"target":34963
	},
	{
		"buffer":4,
		"byteOffset":3168,
		"byteLength":10336,
		"target":34962,
		"byteStride":32
	},
	{
		"buffer":5,
		"byteOffset":0,
		"byteLength":64
	},
	{
		"buffer":5,
		"byteOffset":64,
		"byteLength":80
	},
	{
		"buffer":5,
		"byteOffset":144,
		"byteLength":64
	}],
	"buffers":[{
		"uri":"data:application/octet-stream;base64,",
		"byteLength":840
	},
	{
		"uri":"data:application/octet-stream;base64,",
		"byteLength":208
	},
	{
		"uri":"data:application/octet-stream;base64,",
		"byteLength":40408
	},
	{
		"uri":"data:application/octet-stream;base64,",
		"byteLength":208
	},
	{
		"uri":"data:application/octet-stream;base64,",
		"byteLength":13504
	},
	{
		"uri":"data:application/octet-stream;base64,",
		"byteLength":208
	}],
	"materials":[{
		"pbrMetallicRoughness":{
			"baseColorFactor":[0.8,
			0.8,
			0.8,
			1.0],
			"metallicFactor":0.0,
			"roughnessFactor":0.5
		},
		"emissiveFactor":[0.0,
		0.0,
		0.0],
		"alphaMode":"OPAQUE",
		"doubleSided":false,
		"name":"Mat.1"
	},
	{
		"pbrMetallicRoughness":{
			"baseColorFactor":[0.42,
			0.3317300000000001,
			0.01260000000000001,
			1.0],
			"metallicFactor":1.0,
			"roughnessFactor":0.0
		},
		"emissiveFactor":[0.0,
		0.0,
		0.0],
		"alphaMode":"OPAQUE",
		"doubleSided":false,
		"name":"Mat"
	},
	{
		"pbrMetallicRoughness":{
			"baseColorFactor":[0.08666666666666673,
			0.4,
			0.0,
			1.0],
			"metallicFactor":0.0,
			"roughnessFactor":0.5
		},
		"emissiveFactor":[0.0,
		0.0,
		0.0],
		"alphaMode":"OPAQUE",
		"doubleSided":false,
		"name":"Mat"
	}],
	"animations":[{
		"samplers":[{
			"input":4,
			"interpolation":"LINEAR",
			"output":5
		},
		{
			"input":6,
			"interpolation":"LINEAR",
			"output":7
		},
		{
			"input":8,
			"interpolation":"LINEAR",
			"output":9
		},
		{
			"input":14,
			"interpolation":"LINEAR",
			"output":15
		},
		{
			"input":16,
			"interpolation":"LINEAR",
			"output":17
		},
		{
			"input":18,
			"interpolation":"LINEAR",
			"output":19
		},
		{
			"input":24,
			"interpolation":"LINEAR",
			"output":25
		},
		{
			"input":26,
			"interpolation":"LINEAR",
			"output":27
		},
		{
			"input":28,
			"interpolation":"LINEAR",
			"output":29
		}],
		"channels":[{
			"sampler":0,
			"target":{
				"node":0,
				"path":"translation"
			}
		},
		{
			"sampler":1,
			"target":{
				"node":0,
				"path":"rotation"
			}
		},
		{
			"sampler":2,
			"target":{
				"node":0,
				"path":"scale"
			}
		},
		{
			"sampler":3,
			"target":{
				"node":1,
				"path":"translation"
			}
		},
		{
			"sampler":4,
			"target":{
				"node":1,
				"path":"rotation"
			}
		},
		{
			"sampler":5,
			"target":{
				"node":1,
				"path":"scale"
			}
		},
		{
			"sampler":6,
			"target":{
				"node":2,
				"path":"translation"
			}
		},
		{
			"sampler":7,
			"target":{
				"node":2,
				"path":"rotation"
			}
		},
		{
			"sampler":8,
			"target":{
				"node":2,
				"path":"scale"
			}
		}]
	}]
}