<svg width="48" height="36" viewBox="0 0 48 36" fill="none" xmlns="http://www.w3.org/2000/svg">
<path d="M42.4269 5.05114C45.2246 5.05114 47 7.06456 47 8.57454V20.9064V30.2183C47 33.8424 44.6686 34.9161 43.5029 35H5.8421C1.75322 35 0.999991 32.735 1 30.7216V9.3296C1 5.70554 3.51072 5.13505 4.76608 5.30281H13.6433C13.6433 1.47741 15.616 0.856626 16.6023 1.02441H31.1287C33.4959 1.02441 33.9084 3.7089 33.8187 5.05114H42.4269Z" stroke="white" stroke-width="2"/>
<path d="M30 19.5C30 23.03 26.9278 26 23 26C19.0722 26 16 23.03 16 19.5C16 15.97 19.0722 13 23 13C26.9278 13 30 15.97 30 19.5Z" stroke="white" stroke-width="2"/>
<circle cx="40" cy="15" r="3" fill="white"/>
</svg>
