<?xml version="1.0" encoding="UTF-8"?>
<svg width="89px" height="133px" viewBox="0 0 89 133" version="1.1" xmlns="http://www.w3.org/2000/svg" xmlns:xlink="http://www.w3.org/1999/xlink">
    <!-- Generator: Sketch 63.1 (92452) - https://sketch.com -->
    <title>steps</title>
    <desc>Created with Sketch.</desc>
    <g id="Page-1" stroke="none" stroke-width="1" fill="none" fill-rule="evenodd">
        <g id="Artboard" transform="translate(-9.000000, -7.000000)" stroke="#7BC88F" stroke-width="4">
            <g id="steps" transform="translate(9.000000, 7.000000)">
                <path d="M66.7958475,32 C61.7571235,32 57.6862651,34.4831783 54.8358555,38.6458102 C51.689364,43.2408292 50,49.8023216 50,57.4487553 C50,66.5593795 51.4068051,71.2666929 53.0890877,76.9261546 C54.2764588,80.9206568 55.5965602,85.3685287 56.6942038,91.9885716 C56.8544907,92.0725598 57.0179001,92.1574133 57.1844021,92.2438726 C61.5893311,94.5312163 68.1721783,97.9505732 72.8520625,100.100115 C74.4095147,100.815477 75.745983,101.387377 76.7093784,101.716558 C83.1979225,91.9685564 86.0199444,67.7570055 86.0199444,57.4487553 C86.0199444,50.0754185 83.8742659,43.7228074 80.363258,39.1820819 C76.8966179,34.6987365 72.0906144,32 66.7958475,32 Z" id="Oval"></path>
                <path d="M54.7624194,104.242977 C54.6734628,104.734 54.6026492,105.315829 54.5403829,105.965382 C54.2192655,109.315225 54.2235332,114.264588 54.2235332,118.578536 C54.2235332,121.772784 55.4121567,124.670393 57.3522198,126.765661 C59.2387034,128.803063 61.8405017,130.078536 64.7235332,130.078536 C66.1476255,130.078536 68.3674499,129.785458 70.2057663,128.742461 C71.3009831,128.121073 72.2673946,127.213557 72.7096409,125.850819 C73.9441538,122.046788 74.7473557,119.057146 75.2389577,116.835215 C75.5436256,115.458183 75.7262922,114.389034 75.8142466,113.615209 C75.8212576,113.553526 75.8281033,113.48988 75.8347717,113.42426 C72.6008439,111.83984 58.9799848,105.498195 54.7624194,104.242977 Z" id="Oval"></path>
                <path d="M18.7958475,2 C13.7571235,2 9.68626507,4.48317829 6.83585553,8.64581018 C3.68936399,13.2408292 2,19.8023216 2,27.4487553 C2,36.5593795 3.40680509,41.2666929 5.08908769,46.9261546 C6.27645884,50.9206568 7.59656018,55.3685287 8.69420385,61.9885716 C8.85449068,62.0725598 9.01790015,62.1574133 9.18440207,62.2438726 C13.5893311,64.5312163 20.1721783,67.9505732 24.8520625,70.1001151 C26.4095147,70.8154766 27.745983,71.3873774 28.7093784,71.7165579 C35.1979225,61.9685564 38.0199444,37.7570055 38.0199444,27.4487553 C38.0199444,20.0754185 35.8742659,13.7228074 32.363258,9.18208194 C28.8966179,4.69873653 24.0906144,2 18.7958475,2 Z" id="Oval" transform="translate(20.009972, 36.962329) scale(-1, 1) translate(-20.009972, -36.962329) "></path>
                <path d="M12.7624194,74.2429768 C12.6734628,74.7339996 12.6026492,75.3158294 12.5403829,75.9653816 C12.2192655,79.3152255 12.2235332,84.2645878 12.2235332,88.5785356 C12.2235332,91.7727836 13.4121567,94.670393 15.3522198,96.7656611 C17.2387034,98.8030634 19.8405017,100.078536 22.7235332,100.078536 C24.1476255,100.078536 26.3674499,99.7854581 28.2057663,98.7424612 C29.3009831,98.1210732 30.2673946,97.2135573 30.7096409,95.8508186 C31.9441538,92.0467876 32.7473557,89.0571464 33.2389577,86.8352145 C33.5436256,85.458183 33.7262922,84.3890342 33.8142466,83.6152095 C33.8212576,83.5535264 33.8281033,83.4898797 33.8347717,83.42426 C30.6008439,81.8398403 16.9799848,75.4981955 12.7624194,74.2429768 Z" id="Oval" transform="translate(23.047930, 86.938297) scale(-1, 1) translate(-23.047930, -86.938297) "></path>
            </g>
        </g>
    </g>
</svg>