<?xml version="1.0" encoding="UTF-8"?>
<svg width="107px" height="96px" viewBox="0 0 107 96" version="1.1" xmlns="http://www.w3.org/2000/svg" xmlns:xlink="http://www.w3.org/1999/xlink">
    <!-- Generator: Sketch 63.1 (92452) - https://sketch.com -->
    <title>time</title>
    <desc>Created with Sketch.</desc>
    <g id="Page-1" stroke="none" stroke-width="1" fill="none" fill-rule="evenodd">
        <g id="Artboard" transform="translate(-127.000000, -473.000000)" stroke="#FF0031" stroke-width="4">
            <g id="time" transform="translate(120.595409, 467.000000)">
                <circle id="Oval" cx="60.4045907" cy="57" r="43"></circle>
                <path d="M102,10 C98.5711692,10 95.4724359,11.6226793 93.160182,13.9349332 C90.6334552,16.46166 89,19.8407945 89,23 C89,23.2189809 89.1681917,23.37348 89.333234,23.5251695 C89.8429462,23.9936431 90.6107422,24.3537477 91.5255681,24.6693219 C94.082006,25.551179 97.6915584,25.9503316 101.350642,25.9503316 C105.239949,25.9503316 109.194409,25.4941079 112.036983,24.5949218 C113.121003,24.2520157 114.029865,23.8615149 114.639211,23.3720904 C114.775626,23.2625223 115,23.1780023 115,23 C115,20.1058782 113.248231,16.612644 110.604199,13.9686123 C108.323145,11.6875586 105.322191,10 102,10 Z" id="Oval" transform="translate(102.000000, 17.975166) rotate(46.000000) translate(-102.000000, -17.975166) "></path>
                <path d="M18,10 C14.5711692,10 11.4724359,11.6226793 9.16018203,13.9349332 C6.6334552,16.46166 5,19.8407945 5,23 C5,23.2189809 5.1681917,23.37348 5.33323401,23.5251695 C5.84294625,23.9936431 6.61074217,24.3537477 7.52556807,24.6693219 C10.082006,25.551179 13.6915584,25.9503316 17.3506416,25.9503316 C21.239949,25.9503316 25.1944086,25.4941079 28.036983,24.5949218 C29.1210032,24.2520157 30.0298646,23.8615149 30.6392106,23.3720904 C30.7756257,23.2625223 31,23.1780023 31,23 C31,20.1058782 29.2482307,16.612644 26.604199,13.9686123 C24.3231453,11.6875586 21.3221915,10 18,10 Z" id="Oval" transform="translate(18.000000, 17.975166) scale(-1, 1) rotate(46.000000) translate(-18.000000, -17.975166) "></path>
                <line x1="60.4045907" y1="57" x2="77.4045907" y2="47" id="Line" stroke-linecap="round"></line>
                <line x1="60.9045907" y1="57.5" x2="60.9045907" y2="27.5" id="Line" stroke-linecap="round"></line>
            </g>
        </g>
    </g>
</svg>