{
	"asset":{
		"version":"2.0",
		"generator":"Created using the official Cinema 4D glTF Exporter 1.000x290161"
	},
	"scenes":[{
		"nodes":[0,
		1,
		2,
		3]
	}],
	"nodes":[{
		"name":"Camera",
		"rotation":[-0.0901360809803009,
		-0.11460445821285248,
		-0.010442161932587624,
		0.9892584681510925],
		"translation":[-275.6400146484375,
		571.302978515625,
		1440.2362060546875],
		"scale":[1.0,
		1.0,
		1.0],
		"camera":0
	},
	{
		"name":"Cube",
		"rotation":[0.0062643312849104408,
		0.9994849562644959,
		-0.0001972595346160233,
		0.031473103910684589],
		"translation":[0.29356566071510317,
		23.418537139892579,
		0.0],
		"scale":[1.0,
		1.0,
		1.0],
		"mesh":0
	},
	{
		"name":"Cone",
		"rotation":[0.26522591710090639,
		0.0,
		0.0,
		-0.9641863107681274],
		"translation":[-0.3964599072933197,
		288.3248596191406,
		-8.448573112487793],
		"scale":[1.0,
		1.0,
		1.0],
		"mesh":1
	},
	{
		"name":"Sphere",
		"rotation":[0.0,
		0.0,
		0.0,
		-1.0],
		"translation":[9.759486198425293,
		499.6751708984375,
		-2.4712531566619875],
		"scale":[1.0,
		1.0,
		1.0],
		"mesh":2
	}],
	"meshes":[{
		"primitives":[{
			"attributes":{
				"POSITION":1,
				"NORMAL":2,
				"TEXCOORD_0":3
			},
			"indices":0,
			"material":0
		}]
	},
	{
		"primitives":[{
			"attributes":{
				"POSITION":11,
				"NORMAL":12,
				"TEXCOORD_0":13
			},
			"indices":10,
			"material":1
		}]
	},
	{
		"primitives":[{
			"attributes":{
				"POSITION":21,
				"NORMAL":22,
				"TEXCOORD_0":23
			},
			"indices":20,
			"material":2
		}]
	}],
	"cameras":[{
		"type":"orthographic",
		"orthographic":{
			"znear":0.0,
			"zfar":10000.0,
			"xmag":512.0,
			"ymag":288.0
		}
	}],
	"accessors":[{
		"bufferView":0,
		"type":"SCALAR",
		"count":36,
		"componentType":5123,
		"byteOffset":0,
		"min":[0],
		"max":[23]
	},
	{
		"bufferView":1,
		"type":"VEC3",
		"count":24,
		"componentType":5126,
		"byteOffset":0,
		"min":[-100.0,
		-100.0,
		-100.0],
		"max":[100.0,
		100.0,
		100.0]
	},
	{
		"bufferView":1,
		"type":"VEC3",
		"count":24,
		"componentType":5126,
		"byteOffset":12,
		"min":[-1.0,
		-1.0,
		-1.0],
		"max":[1.0,
		1.0,
		1.0]
	},
	{
		"bufferView":1,
		"type":"VEC2",
		"count":24,
		"componentType":5126,
		"byteOffset":24,
		"min":[0.0,
		0.0],
		"max":[1.0,
		1.0]
	},
	{
		"bufferView":2,
		"type":"SCALAR",
		"count":4,
		"componentType":5126,
		"byteOffset":0,
		"min":[0.0],
		"max":[3.0]
	},
	{
		"bufferView":2,
		"type":"VEC3",
		"count":4,
		"componentType":5126,
		"byteOffset":16,
		"min":[0.2693479061126709,
		23.418537139892579,
		-0.0000023113675524655265],
		"max":[0.29356566071510317,
		84.80528259277344,
		0.0]
	},
	{
		"bufferView":3,
		"type":"SCALAR",
		"count":4,
		"componentType":5126,
		"byteOffset":0,
		"min":[0.0],
		"max":[3.0]
	},
	{
		"bufferView":3,
		"type":"VEC4",
		"count":4,
		"componentType":5126,
		"byteOffset":16,
		"min":[0.0,
		-0.718148946762085,
		-0.0001972595346160233,
		-0.9999803304672241],
		"max":[0.0062643312849104408,
		0.9994849562644959,
		0.006267435848712921,
		0.695889413356781]
	},
	{
		"bufferView":4,
		"type":"SCALAR",
		"count":4,
		"componentType":5126,
		"byteOffset":0,
		"min":[0.0],
		"max":[3.0]
	},
	{
		"bufferView":4,
		"type":"VEC3",
		"count":4,
		"componentType":5126,
		"byteOffset":16,
		"min":[1.0,
		1.0,
		1.0],
		"max":[1.0,
		1.0,
		1.0]
	},
	{
		"bufferView":5,
		"type":"SCALAR",
		"count":4860,
		"componentType":5123,
		"byteOffset":0,
		"min":[0],
		"max":[958]
	},
	{
		"bufferView":6,
		"type":"VEC3",
		"count":959,
		"componentType":5126,
		"byteOffset":0,
		"min":[-61.69137954711914,
		-100.0,
		-61.69137954711914],
		"max":[61.69137954711914,
		100.0,
		61.69137954711914]
	},
	{
		"bufferView":6,
		"type":"VEC3",
		"count":959,
		"componentType":5126,
		"byteOffset":12,
		"min":[-0.9985933303833008,
		-1.0,
		-0.9985933303833008],
		"max":[0.9985933303833008,
		0.44721367955207827,
		0.9985933303833008]
	},
	{
		"bufferView":6,
		"type":"VEC2",
		"count":959,
		"componentType":5126,
		"byteOffset":24,
		"min":[0.0,
		0.0],
		"max":[1.0,
		1.0]
	},
	{
		"bufferView":7,
		"type":"SCALAR",
		"count":4,
		"componentType":5126,
		"byteOffset":0,
		"min":[0.0],
		"max":[3.0]
	},
	{
		"bufferView":7,
		"type":"VEC3",
		"count":4,
		"componentType":5126,
		"byteOffset":16,
		"min":[-0.3964599072933197,
		288.3248596191406,
		-8.448573112487793],
		"max":[-0.3964599072933197,
		288.3248596191406,
		-8.448573112487793]
	},
	{
		"bufferView":8,
		"type":"SCALAR",
		"count":4,
		"componentType":5126,
		"byteOffset":0,
		"min":[0.0],
		"max":[3.0]
	},
	{
		"bufferView":8,
		"type":"VEC4",
		"count":4,
		"componentType":5126,
		"byteOffset":16,
		"min":[-0.265286386013031,
		0.0,
		0.0,
		-0.9641863107681274],
		"max":[0.26522591710090639,
		0.0,
		0.0,
		-0.9641696810722351]
	},
	{
		"bufferView":9,
		"type":"SCALAR",
		"count":4,
		"componentType":5126,
		"byteOffset":0,
		"min":[0.0],
		"max":[3.0]
	},
	{
		"bufferView":9,
		"type":"VEC3",
		"count":4,
		"componentType":5126,
		"byteOffset":16,
		"min":[1.0,
		1.0,
		1.0],
		"max":[1.0,
		1.0,
		1.0]
	},
	{
		"bufferView":10,
		"type":"SCALAR",
		"count":1584,
		"componentType":5123,
		"byteOffset":0,
		"min":[0],
		"max":[322]
	},
	{
		"bufferView":11,
		"type":"VEC3",
		"count":323,
		"componentType":5126,
		"byteOffset":0,
		"min":[-100.0,
		-100.0,
		-100.0],
		"max":[100.0,
		100.0,
		100.0]
	},
	{
		"bufferView":11,
		"type":"VEC3",
		"count":323,
		"componentType":5126,
		"byteOffset":12,
		"min":[-1.0,
		-1.0,
		-1.0],
		"max":[1.0,
		1.0,
		1.0]
	},
	{
		"bufferView":11,
		"type":"VEC2",
		"count":323,
		"componentType":5126,
		"byteOffset":24,
		"min":[0.0,
		0.0],
		"max":[1.0,
		1.0]
	},
	{
		"bufferView":12,
		"type":"SCALAR",
		"count":4,
		"componentType":5126,
		"byteOffset":0,
		"min":[0.0],
		"max":[3.0]
	},
	{
		"bufferView":12,
		"type":"VEC3",
		"count":4,
		"componentType":5126,
		"byteOffset":16,
		"min":[9.759486198425293,
		481.6983642578125,
		-2.4712531566619875],
		"max":[9.759486198425293,
		499.6751708984375,
		-2.4712531566619875]
	},
	{
		"bufferView":13,
		"type":"SCALAR",
		"count":4,
		"componentType":5126,
		"byteOffset":0,
		"min":[0.0],
		"max":[3.0]
	},
	{
		"bufferView":13,
		"type":"VEC4",
		"count":4,
		"componentType":5126,
		"byteOffset":16,
		"min":[0.0,
		0.0,
		0.0,
		-1.0],
		"max":[0.0,
		0.0,
		0.0,
		-1.0]
	},
	{
		"bufferView":14,
		"type":"SCALAR",
		"count":4,
		"componentType":5126,
		"byteOffset":0,
		"min":[0.0],
		"max":[3.0]
	},
	{
		"bufferView":14,
		"type":"VEC3",
		"count":4,
		"componentType":5126,
		"byteOffset":16,
		"min":[1.0,
		1.0,
		1.0],
		"max":[1.0,
		1.0,
		1.0]
	}],
	"bufferViews":[{
		"buffer":0,
		"byteOffset":0,
		"byteLength":72,
		"target":34963
	},
	{
		"buffer":0,
		"byteOffset":72,
		"byteLength":768,
		"target":34962,
		"byteStride":32
	},
	{
		"buffer":1,
		"byteOffset":0,
		"byteLength":64
	},
	{
		"buffer":1,
		"byteOffset":64,
		"byteLength":80
	},
	{
		"buffer":1,
		"byteOffset":144,
		"byteLength":64
	},
	{
		"buffer":2,
		"byteOffset":0,
		"byteLength":9720,
		"target":34963
	},
	{
		"buffer":2,
		"byteOffset":9720,
		"byteLength":30688,
		"target":34962,
		"byteStride":32
	},
	{
		"buffer":3,
		"byteOffset":0,
		"byteLength":64
	},
	{
		"buffer":3,
		"byteOffset":64,
		"byteLength":80
	},
	{
		"buffer":3,
		"byteOffset":144,
		"byteLength":64
	},
	{
		"buffer":4,
		"byteOffset":0,
		"byteLength":3168,
		"target":34963
	},
	{
		"buffer":4,
		"byteOffset":3168,
		"byteLength":10336,
		"target":34962,
		"byteStride":32
	},
	{
		"buffer":5,
		"byteOffset":0,
		"byteLength":64
	},
	{
		"buffer":5,
		"byteOffset":64,
		"byteLength":80
	},
	{
		"buffer":5,
		"byteOffset":144,
		"byteLength":64
	}],
	"buffers":[{
		"uri":"data:application/octet-stream;base64,",
		"byteLength":840
	},
	{
		"uri":"data:application/octet-stream;base64,",
		"byteLength":208
	},
	{
		"uri":"data:application/octet-stream;base64,",
		"byteLength":40408
	},
	{
		"uri":"data:application/octet-stream;base64,",
		"byteLength":208
	},
	{
		"uri":"data:application/octet-stream;base64,",
		"byteLength":13504
	},
	{
		"uri":"data:application/octet-stream;base64,",
		"byteLength":208
	}],
	"materials":[{
		"pbrMetallicRoughness":{
			"baseColorFactor":[0.8,
			0.8,
			0.8,
			1.0],
			"metallicFactor":0.0,
			"roughnessFactor":0.5
		},
		"emissiveFactor":[0.0,
		0.0,
		0.0],
		"alphaMode":"OPAQUE",
		"doubleSided":false,
		"name":"Mat.1"
	},
	{
		"pbrMetallicRoughness":{
			"baseColorFactor":[0.42,
			0.3317300000000001,
			0.01260000000000001,
			1.0],
			"metallicFactor":1.0,
			"roughnessFactor":0.0
		},
		"emissiveFactor":[0.0,
		0.0,
		0.0],
		"alphaMode":"OPAQUE",
		"doubleSided":false,
		"name":"Mat"
	},
	{
		"pbrMetallicRoughness":{
			"baseColorFactor":[0.08666666666666673,
			0.4,
			0.0,
			1.0],
			"metallicFactor":0.0,
			"roughnessFactor":0.5
		},
		"emissiveFactor":[0.0,
		0.0,
		0.0],
		"alphaMode":"OPAQUE",
		"doubleSided":false,
		"name":"Mat"
	}],
	"animations":[{
		"samplers":[{
			"input":4,
			"interpolation":"LINEAR",
			"output":5
		},
		{
			"input":6,
			"interpolation":"LINEAR",
			"output":7
		},
		{
			"input":8,
			"interpolation":"LINEAR",
			"output":9
		},
		{
			"input":14,
			"interpolation":"LINEAR",
			"output":15
		},
		{
			"input":16,
			"interpolation":"LINEAR",
			"output":17
		},
		{
			"input":18,
			"interpolation":"LINEAR",
			"output":19
		},
		{
			"input":24,
			"interpolation":"LINEAR",
			"output":25
		},
		{
			"input":26,
			"interpolation":"LINEAR",
			"output":27
		},
		{
			"input":28,
			"interpolation":"LINEAR",
			"output":29
		}],
		"channels":[{
			"sampler":0,
			"target":{
				"node":1,
				"path":"translation"
			}
		},
		{
			"sampler":1,
			"target":{
				"node":1,
				"path":"rotation"
			}
		},
		{
			"sampler":2,
			"target":{
				"node":1,
				"path":"scale"
			}
		},
		{
			"sampler":3,
			"target":{
				"node":2,
				"path":"translation"
			}
		},
		{
			"sampler":4,
			"target":{
				"node":2,
				"path":"rotation"
			}
		},
		{
			"sampler":5,
			"target":{
				"node":2,
				"path":"scale"
			}
		},
		{
			"sampler":6,
			"target":{
				"node":3,
				"path":"translation"
			}
		},
		{
			"sampler":7,
			"target":{
				"node":3,
				"path":"rotation"
			}
		},
		{
			"sampler":8,
			"target":{
				"node":3,
				"path":"scale"
			}
		}]
	}]
}